<svg xmlns="http://www.w3.org/2000/svg" xmlns:xlink="http://www.w3.org/1999/xlink" width="95" zoomAndPan="magnify" viewBox="0 0 71.25 77.25" height="103" preserveAspectRatio="xMidYMid meet" version="1.0"><defs><g/><clipPath id="3080dff1c5"><path d="M 0 2.347656 L 69.777344 2.347656 L 69.777344 72.125 L 0 72.125 Z M 0 2.347656 " clip-rule="nonzero"/></clipPath><clipPath id="c61038c3d4"><path d="M 19.296875 2.347656 L 50.480469 2.347656 C 61.136719 2.347656 69.777344 10.988281 69.777344 21.644531 L 69.777344 52.828125 C 69.777344 63.484375 61.136719 72.125 50.480469 72.125 L 19.296875 72.125 C 8.640625 72.125 0 63.484375 0 52.828125 L 0 21.644531 C 0 10.988281 8.640625 2.347656 19.296875 2.347656 Z M 19.296875 2.347656 " clip-rule="nonzero"/></clipPath><clipPath id="54cb3a99f4"><path d="M 6.941406 16.316406 L 20 16.316406 L 20 57.878906 L 6.941406 57.878906 Z M 6.941406 16.316406 " clip-rule="nonzero"/></clipPath><clipPath id="21d87a2110"><path d="M 50 16.316406 L 62.957031 16.316406 L 62.957031 57.878906 L 50 57.878906 Z M 50 16.316406 " clip-rule="nonzero"/></clipPath></defs><g clip-path="url(#3080dff1c5)"><g clip-path="url(#c61038c3d4)"><path fill="#ffde59" d="M 0 2.347656 L 69.777344 2.347656 L 69.777344 72.125 L 0 72.125 Z M 0 2.347656 " fill-opacity="1" fill-rule="nonzero"/></g></g><g clip-path="url(#54cb3a99f4)"><path fill="#292929" d="M 18.566406 20.964844 L 19.730469 20.964844 L 19.730469 16.316406 L 18.566406 16.316406 C 14.714844 16.316406 11.59375 19.4375 11.59375 23.289062 L 11.59375 31.425781 C 11.59375 32.15625 11.25 32.84375 10.664062 33.285156 L 7.875 35.375 C 7.316406 35.792969 6.976562 36.441406 6.945312 37.140625 C 6.917969 37.835938 7.203125 38.511719 7.726562 38.972656 L 10.8125 41.71875 C 11.308594 42.160156 11.59375 42.792969 11.59375 43.457031 L 11.59375 51.183594 C 11.59375 55.035156 14.714844 58.15625 18.566406 58.15625 L 19.730469 58.15625 L 19.730469 53.507812 L 18.566406 53.507812 C 17.285156 53.507812 16.242188 52.464844 16.242188 51.183594 L 16.242188 43.457031 C 16.242188 41.464844 15.390625 39.566406 13.902344 38.242188 L 12.941406 37.386719 L 13.453125 37.003906 C 15.210938 35.6875 16.242188 33.621094 16.242188 31.425781 L 16.242188 23.289062 C 16.242188 22.003906 17.285156 20.964844 18.566406 20.964844 Z M 18.566406 20.964844 " fill-opacity="1" fill-rule="evenodd"/></g><g clip-path="url(#21d87a2110)"><path fill="#292929" d="M 51.433594 20.964844 L 50.269531 20.964844 L 50.269531 16.316406 L 51.433594 16.316406 C 55.285156 16.316406 58.40625 19.4375 58.40625 23.289062 L 58.40625 31.425781 C 58.40625 32.15625 58.75 32.84375 59.335938 33.285156 L 62.125 35.375 C 62.683594 35.792969 63.023438 36.441406 63.050781 37.140625 C 63.082031 37.835938 62.796875 38.511719 62.273438 38.972656 L 59.1875 41.71875 C 58.691406 42.160156 58.40625 42.792969 58.40625 43.457031 L 58.40625 51.183594 C 58.40625 55.035156 55.285156 58.15625 51.433594 58.15625 L 50.269531 58.15625 L 50.269531 53.507812 L 51.433594 53.507812 C 52.714844 53.507812 53.757812 52.464844 53.757812 51.183594 L 53.757812 43.457031 C 53.757812 41.464844 54.609375 39.566406 56.097656 38.242188 L 57.058594 37.386719 L 56.546875 37.003906 C 54.789062 35.6875 53.757812 33.621094 53.757812 31.425781 L 53.757812 23.289062 C 53.757812 22.003906 52.714844 20.964844 51.433594 20.964844 Z M 51.433594 20.964844 " fill-opacity="1" fill-rule="evenodd"/></g><g fill="#292929" fill-opacity="1"><g transform="translate(23.052513, 52.785937)"><g><path d="M 23.6875 -0.296875 L 15.46875 0 L 14.71875 -2.703125 C 14.46875 -2.484375 14.132812 -2.195312 13.71875 -1.84375 C 13.300781 -1.5 12.503906 -1.035156 11.328125 -0.453125 C 10.148438 0.128906 9.035156 0.421875 7.984375 0.421875 C 5.960938 0.421875 4.378906 -0.144531 3.234375 -1.28125 C 2.097656 -2.425781 1.53125 -4.035156 1.53125 -6.109375 C 1.53125 -10.679688 4.859375 -12.96875 11.515625 -12.96875 L 14.421875 -12.96875 L 14.421875 -15.25 C 14.421875 -17.332031 13.351562 -18.375 11.21875 -18.375 C 10.582031 -18.375 9.957031 -18.316406 9.34375 -18.203125 C 8.738281 -18.085938 8.285156 -17.976562 7.984375 -17.875 L 7.5625 -17.75 L 6.9375 -15.046875 L 3.203125 -15.046875 L 2.90625 -21.203125 C 6.257812 -22.304688 9.265625 -22.859375 11.921875 -22.859375 C 15.085938 -22.859375 17.320312 -22.238281 18.625 -21 C 19.925781 -19.769531 20.578125 -17.644531 20.578125 -14.625 L 20.578125 -4.359375 L 23.6875 -3.609375 Z M 7.515625 -6.734375 C 7.515625 -5.066406 8.332031 -4.234375 9.96875 -4.234375 C 10.632812 -4.234375 11.332031 -4.429688 12.0625 -4.828125 C 12.800781 -5.234375 13.378906 -5.644531 13.796875 -6.0625 L 14.421875 -6.65625 L 14.421875 -9.4375 L 12.046875 -9.4375 C 10.441406 -9.4375 9.285156 -9.21875 8.578125 -8.78125 C 7.867188 -8.351562 7.515625 -7.671875 7.515625 -6.734375 Z M 7.515625 -6.734375 "/></g></g></g></svg>